mtllib materials.mtl
v 0.01602139 -0.01635754 -0.01485521
v 0.0147476 -0.01653171 0.01737589
v 0.01570411 0.01033127 0.01755881
v 0.01697791 0.01050544 -0.01467228
v -0.01618971 -0.01520193 -0.01612198
v -0.0152332 0.01166093 -0.01593906
v -0.01650699 0.01148677 0.01629204
v -0.01746351 -0.01537609 0.01610911
v 0.01487356 -0.04859304 -0.01507467
v 0.01359977 -0.04876721 0.01715642
v 0.01474758 -0.01653171 0.01737595
v 0.01602138 -0.01635754 -0.01485515
v -0.01733754 -0.04743743 -0.01634145
v -0.01618972 -0.01520193 -0.01612192
v -0.01746352 -0.01537609 0.01610917
v -0.01861133 -0.04761159 0.01588964
v 0.0341428 -0.009103417 0.01011193
v 0.03471671 0.007014394 0.01022172
v 0.03535361 0.007101417 -0.005893826
v 0.0347797 -0.009016395 -0.006003559
v 0.00730022 -0.008140445 0.00905633
v 0.007937118 -0.008053422 -0.007059216
v 0.008511029 0.008064389 -0.006949425
v 0.007874131 0.007977366 0.009166062
v 0.02992812 -0.05198765 0.00971365
v 0.03145854 -0.009006858 0.01000631
v 0.03209544 -0.008919835 -0.006109178
v 0.03056502 -0.05190051 -0.006401896
v 0.01382256 -0.05140984 0.009080231
v 0.01445946 -0.05132282 -0.007035255
v 0.01598988 -0.008342028 -0.006742597
v 0.01535299 -0.00842917 0.00937295
v -0.03117292 -0.0496856 -0.008829892
v -0.0296425 -0.006704926 -0.008537233
v -0.03027939 -0.006792068 0.007578313
v -0.03180982 -0.04977274 0.007285655
v -0.01506736 -0.0502634 -0.008196533
v -0.01570426 -0.05035055 0.007919014
v -0.01417384 -0.007369757 0.008211672
v -0.01353694 -0.007282734 -0.007903874
v -0.009373225 -0.09899294 0.007906497
v -0.006694987 -0.02377665 0.008418739
v -0.006058089 -0.02368963 -0.007696807
v -0.008736327 -0.0989058 -0.00820905
v -0.02011026 -0.09860766 0.007484257
v -0.01947336 -0.09852064 -0.008631289
v -0.01679512 -0.02330434 -0.008119047
v -0.01743202 -0.02339149 0.0079965
v 0.01210084 -0.09976339 0.008750975
v 0.01477908 -0.0245471 0.009263217
v 0.01541597 -0.02446008 -0.006852329
v 0.01273774 -0.09967625 -0.007364571
v 0.001363806 -0.09937811 0.008328736
v 0.002000704 -0.09929109 -0.00778681
v 0.004678942 -0.02407479 -0.007274568
v 0.004042044 -0.02416193 0.008840978
v -0.03232676 -0.006608605 -0.008642733
v -0.03175285 0.009509087 -0.008533001
v -0.03238975 0.009422064 0.007582545
v -0.03296366 -0.006695747 0.007472813
v -0.005484164 -0.007571697 -0.007587075
v -0.006121062 -0.00765872 0.008528471
v -0.005547158 0.008459091 0.008638203
v -0.00491026 0.008546114 -0.007477343
v -0.008277357 0.008240104 -0.01624107
v -0.00423827 -0.002721429 -0.01640964
v -0.007520825 0.001725793 -0.01619369
v -0.01183581 -0.001023531 -0.0167889
v -0.01523321 0.01166105 -0.015939
v 0.01697789 0.01050544 -0.01467222
v 0.0173605 0.02125061 -0.01459908
v -0.0148506 0.02240622 -0.0158658
v -0.01650701 0.01148689 0.0162921
v -0.0161244 0.02223206 0.01636523
v 0.01608671 0.02107644 0.01763201
v 0.0157041 0.01033127 0.01755881
v 0.03452539 0.00164187 0.01018506
v 0.01305133 0.0024122 0.009340584
v 0.01362523 0.01853001 0.009450316
v 0.03509931 0.01775956 0.01029485
v 0.0351623 0.001728892 -0.005930424
v 0.0357362 0.0178467 -0.005820692
v 0.01426214 0.01861703 -0.00666517
v 0.01368823 0.002499342 -0.006774962
v -0.03194416 0.004136205 -0.008569598
v -0.01047009 0.003365755 -0.00772506
v -0.009896182 0.01948357 -0.007615328
v -0.03137025 0.0202539 -0.008459806
v -0.03258105 0.004049063 0.007545948
v -0.03200715 0.02016687 0.00765568
v -0.01053308 0.01939642 0.008500218
v -0.01110699 0.003278732 0.008390427
v -0.0154455 0.01163185 -0.01056725
v -0.0162947 0.01151574 0.01092017
v -0.01591209 0.0222609 0.0109933
v -0.0150629 0.02237701 -0.01049405
v -0.03155106 0.01220965 -0.01120061
v -0.03116845 0.02295482 -0.01112747
v -0.03201764 0.02283871 0.01035994
v -0.03240025 0.01209354 0.01028675
v 0.03739046 0.009589911 0.01303148
v 0.01054788 0.01055288 0.01197582
v 0.01093048 0.02129805 0.01204902
v 0.03777307 0.02033508 0.01310462
v 0.03823966 0.009705901 -0.008455932
v 0.03862226 0.02045107 -0.008382738
v 0.01177967 0.02141404 -0.009438396
v 0.01139707 0.01066887 -0.00951153
v 0.01245524 0.01268911 -0.01023024
v 0.01220467 0.01270294 0.01201713
v 0.01301184 0.03771985 0.01201057
v 0.01326242 0.0377059 -0.01023674
v -0.009780545 0.0134064 -0.01048112
v -0.008973368 0.0384233 -0.01048768
v -0.009223938 0.03843713 0.0117597
v -0.01003112 0.01342034 0.0117662
v 0.02391476 0.03458858 0.02326041
v 0.02534975 0.07906294 0.02324885
v 0.02585091 0.07903516 -0.0212459
v 0.02441592 0.0345608 -0.02123427
v -0.01780865 0.03593528 0.02557093
v -0.02005565 0.03599548 -0.02173609
v -0.01862066 0.08046997 -0.02174765
v -0.01637366 0.08040977 0.02555931
v 0.02716405 0.03447282 -0.01842201
v 0.02645221 0.02894306 0.02885509
v 0.02836695 0.08731401 0.02605891
v 0.02886809 0.08728623 -0.01843578
v -0.02286646 0.03608692 -0.01898652
v -0.02116241 0.08890033 -0.01900029
v -0.02166355 0.0889281 0.0254944
v -0.02357829 0.03055716 0.02829057
vn 0.9985862 -0.03582434 0.03927128
vn -0.9985862 0.03582434 -0.03927128
vn -0.03558387 -0.9993435 -0.006805346
vn 0.0394893 0.0053983 -0.9992054
vn -0.0394893 -0.0053983 0.9992054
vn 0.03558387 0.9993435 0.006805351
vn 0.9985862 -0.03582434 0.03927128
vn -0.9985862 0.03582434 -0.03927128
vn -0.03558387 -0.9993435 -0.006805346
vn 0.03558387 0.9993435 0.006805346
vn 0.0394893 0.0053983 -0.9992054
vn -0.0394893 -0.0053983 0.9992054
vn 0.9985862 -0.0358243 0.03927133
vn -0.9985862 0.0358243 -0.03927133
vn -0.03948935 -0.005398331 0.9992054
vn 0.03948935 0.005398331 -0.9992054
vn -0.03558383 -0.9993435 -0.006805377
vn 0.03558383 0.9993435 0.006805377
vn 0.9985862 -0.0358243 0.03927133
vn -0.9985862 0.0358243 -0.03927133
vn -0.03948935 -0.005398331 0.9992054
vn 0.03948935 0.005398331 -0.9992054
vn -0.03558383 -0.9993435 -0.006805377
vn 0.03558383 0.9993435 0.006805377
vn -0.9985865 0.0358243 -0.0392714
vn 0.9985865 -0.0358243 0.0392714
vn 0.0394894 0.005398198 -0.9992055
vn -0.0394894 -0.005398198 0.9992055
vn -0.03558385 -0.9993437 -0.0068049
vn 0.03558385 0.9993437 0.0068049
vn 0.9985862 -0.0358243 0.03927133
vn -0.9985862 0.0358243 -0.03927133
vn -0.03948935 -0.005398331 0.9992054
vn 0.03948935 0.005398331 -0.9992054
vn -0.03558383 -0.9993435 -0.006805377
vn 0.03558383 0.9993435 0.006805377
vn 0.9985862 -0.0358243 0.03927133
vn -0.9985862 0.0358243 -0.03927133
vn -0.03948935 -0.005398331 0.9992054
vn 0.03948935 0.005398331 -0.9992054
vn -0.03558383 -0.9993435 -0.006805377
vn 0.03558383 0.9993435 0.006805377
vn -0.9985865 0.0358243 -0.0392714
vn 0.9985865 -0.0358243 0.0392714
vn 0.0394894 0.005398198 -0.9992055
vn -0.0394894 -0.005398198 0.9992055
vn -0.03558385 -0.9993437 -0.0068049
vn 0.03558385 0.9993437 0.0068049
vn 0.08937977 0.01762264 0.9958418
vn 0.1315889 0.008073078 -0.9912716
vn -0.08937812 -0.01762203 -0.995842
vn -0.1315896 -0.008072816 0.9912716
vn 0.03948926 0.005398295 -0.9992055
vn -0.03948926 -0.005398295 0.9992055
vn -0.03558403 -0.9993435 -0.006805347
vn 0.03558403 0.9993435 0.006805347
vn -0.9985863 0.0358245 -0.03927124
vn 0.9985863 -0.0358245 0.03927124
vn -0.03948938 -0.005398312 0.9992055
vn 0.03948938 0.005398312 -0.9992055
vn -0.03558387 -0.9993435 -0.006805354
vn 0.03558387 0.9993435 0.006805354
vn 0.9985864 -0.03582433 0.03927136
vn -0.9985864 0.03582433 -0.03927136
vn 0.03948926 0.00539812 -0.9992055
vn -0.03948926 -0.00539812 0.9992055
vn -0.03558388 -0.9993435 -0.006805168
vn 0.03558388 0.9993435 0.006805168
vn -0.9985864 0.03582434 -0.03927125
vn 0.9985864 -0.03582434 0.03927125
vn 0.9985862 -0.03582434 0.03927128
vn -0.9985862 0.03582434 -0.03927128
vn -0.03558387 -0.9993435 -0.006805346
vn 0.03558387 0.9993435 0.006805346
vn 0.0394893 0.0053983 -0.9992054
vn -0.0394893 -0.0053983 0.9992054
vn -0.03948937 -0.0053983 0.9992055
vn 0.03948937 0.0053983 -0.9992055
vn -0.03558369 -0.9993435 -0.006805337
vn 0.03558369 0.9993435 0.006805337
vn 0.9985864 -0.03582415 0.03927136
vn -0.9985864 0.03582415 -0.03927136
vn 0.9994164 -0.0322437 0.01127654
vn -0.9994164 0.0322437 -0.01127654
vn -0.03224869 -0.9994798 0.0002607242
vn 0.03224869 0.9994798 -0.0002607242
vn 0.01126227 -0.0006242256 -0.9999364
vn -0.01126227 0.0006242256 0.9999364
vn 0.9994164 -0.03224369 0.01127672
vn -0.9983531 0.03222471 0.047461
vn 0.05524282 -0.001521852 0.998472
vn 0.01126245 -0.0006243436 -0.9999366
vn -0.03224868 -0.99948 0.0002608363
vn 0.03224868 0.99948 -0.0002608363
vn 0.9994164 -0.0322437 0.01127654
vn -0.9994164 0.0322437 -0.01127654
vn -0.03071191 -0.992707 -0.1165747
vn 0.03224869 0.9994798 -0.0002607242
vn 0.01126227 -0.0006242256 -0.9999364
vn -0.009715639 0.04816395 0.9987922
usemtl mat5
f 4//1 3//1 2//1 1//1
f 8//2 7//2 6//2 5//2
f 2//3 8//3 5//3 1//3
f 5//4 6//4 4//4 1//4
f 3//5 7//5 8//5 2//5
f 6//6 7//6 3//6 4//6
f 12//7 11//7 10//7 9//7
f 16//8 15//8 14//8 13//8
f 10//9 16//9 13//9 9//9
f 14//10 15//10 11//10 12//10
f 13//11 14//11 12//11 9//11
f 11//12 15//12 16//12 10//12
f 20//13 19//13 18//13 17//13
f 24//14 23//14 22//14 21//14
f 18//15 24//15 21//15 17//15
f 22//16 23//16 19//16 20//16
f 21//17 22//17 20//17 17//17
f 19//18 23//18 24//18 18//18
f 28//19 27//19 26//19 25//19
f 32//20 31//20 30//20 29//20
f 26//21 32//21 29//21 25//21
f 30//22 31//22 27//22 28//22
f 29//23 30//23 28//23 25//23
f 27//24 31//24 32//24 26//24
f 36//25 35//25 34//25 33//25
f 40//26 39//26 38//26 37//26
f 34//27 40//27 37//27 33//27
f 38//28 39//28 35//28 36//28
f 37//29 38//29 36//29 33//29
f 35//30 39//30 40//30 34//30
f 60//43 59//43 58//43 57//43
f 64//44 63//44 62//44 61//44
f 58//45 64//45 61//45 57//45
f 62//46 63//46 59//46 60//46
f 61//47 62//47 60//47 57//47
f 59//48 63//48 64//48 58//48
f 80//59 79//59 78//59 77//59
f 84//60 83//60 82//60 81//60
f 78//61 84//61 81//61 77//61
f 82//62 83//62 79//62 80//62
f 81//63 82//63 80//63 77//63
f 79//64 83//64 84//64 78//64
f 88//65 87//65 86//65 85//65
f 92//66 91//66 90//66 89//66
f 86//67 92//67 89//67 85//67
f 90//68 91//68 87//68 88//68
f 89//69 90//69 88//69 85//69
f 87//70 91//70 92//70 86//70
usemtl mat23
f 44//31 43//31 42//31 41//31
f 48//32 47//32 46//32 45//32
f 42//33 48//33 45//33 41//33
f 46//34 47//34 43//34 44//34
f 45//35 46//35 44//35 41//35
f 43//36 47//36 48//36 42//36
f 52//37 51//37 50//37 49//37
f 56//38 55//38 54//38 53//38
f 50//39 56//39 53//39 49//39
f 54//40 55//40 51//40 52//40
f 53//41 54//41 52//41 49//41
f 51//42 55//42 56//42 50//42
f 72//53 71//53 70//53 69//53
f 76//54 75//54 74//54 73//54
f 70//55 76//55 73//55 69//55
f 74//56 75//56 71//56 72//56
f 73//57 74//57 72//57 69//57
f 71//58 75//58 76//58 70//58
f 96//71 95//71 94//71 93//71
f 100//72 99//72 98//72 97//72
f 94//73 100//73 97//73 93//73
f 98//74 99//74 95//74 96//74
f 97//75 98//75 96//75 93//75
f 95//76 99//76 100//76 94//76
f 104//77 103//77 102//77 101//77
f 108//78 107//78 106//78 105//78
f 102//79 108//79 105//79 101//79
f 106//80 107//80 103//80 104//80
f 105//81 106//81 104//81 101//81
f 103//82 107//82 108//82 102//82
usemtl mat15
f 67//49 66//49 65//49
f 67//50 68//50 65//50
f 66//51 67//51 65//51
f 68//52 67//52 65//52
usemtl mat18
f 112//83 111//83 110//83 109//83
f 116//84 115//84 114//84 113//84
f 110//85 116//85 113//85 109//85
f 114//86 115//86 111//86 112//86
f 113//87 114//87 112//87 109//87
f 111//88 115//88 116//88 110//88
f 120//89 119//89 118//89 117//89
f 124//90 123//90 122//90 121//90
f 118//91 124//91 121//91 117//91
f 122//92 123//92 119//92 120//92
f 121//93 122//93 120//93 117//93
f 119//94 123//94 124//94 118//94
usemtl mat19
f 128//95 127//95 126//95 125//95
f 132//96 131//96 130//96 129//96
f 126//97 132//97 129//97 125//97
f 130//98 131//98 127//98 128//98
f 129//99 130//99 128//99 125//99
f 127//100 131//100 132//100 126//100
