mtllib materials.mtl
v 0.2721144 -0.444498 0.01292232
v 0.2721144 0.4455025 0.01292226
v 0.2721145 0.4455025 -0.01707792
v 0.2721145 -0.444498 -0.01707774
v -0.2678855 -0.444498 0.01292223
v -0.2678855 -0.444498 -0.01707786
v -0.2678855 0.4455025 -0.01707804
v -0.2678855 0.4455025 0.01292214
v 0.2426845 0.4169981 -0.01707807
v 0.2426845 -0.4159932 -0.01707757
v -0.2384556 0.4169981 -0.01707822
v -0.2384557 -0.4159932 -0.01707771
v 0.2426845 0.4169986 0.002922058
v 0.2426847 -0.4159932 0.002922505
v -0.2384557 0.4169986 0.002921879
v -0.2384557 -0.4159932 0.002922356
v 0.2221145 0.3955021 0.002922237
v 0.2221145 0.01688147 0.002922297
v 0.2221145 -0.3215152 0.002922356
v 0.2221145 -0.3421999 0.002922297
v 0.2221145 -0.3944981 0.002922237
v -0.2178855 0.3955021 0.002922237
v 0.0616699 0.3955023 0.002922297
v 0.08051927 0.3955026 0.002922356
v 0.09545381 0.3955028 0.002922416
v -0.2178855 -0.3944981 0.002922237
v -0.2178855 -0.3480592 0.002922326
v -0.2178855 -0.3284348 0.002922386
v -0.2178855 -0.2996542 0.002922297
v -0.2178855 0.1645436 0.002922356
v -0.2178855 0.283708 0.002922297
v 0.08981988 -0.0782913 0.002922475
v 0.0604016 0.2841703 0.002922356
v 0.05902706 0.1635118 0.002922416
v 0.05599524 -0.1026247 0.002922356
v 0.07413882 -0.08957219 0.002922416
v 0.2422098 -0.4151155 -0.002912253
v 0.242208 -0.4151219 0.006607831
v 0.2415671 0.4144881 0.007160217
v 0.2415689 0.4144943 -0.002359807
v -0.2457961 -0.4154926 -0.003004372
v -0.2464369 0.4141173 -0.002452016
v -0.2464387 0.4141111 0.007067978
v -0.2457979 -0.4154989 0.006515622
vn 1 0 1.748456E-07
vn -1 0 -1.748456E-07
vn -1.748456E-07 1.192093E-07 1
vn -2.60995E-06 -1.702698E-07 -1
vn 0 -1 1.192093E-07
vn 0 1 -1.192093E-07
vn 2.769943E-07 -1.691514E-06 -1
vn 1.440664E-06 -1.928566E-07 -1
vn 2.478089E-07 1.145131E-06 -1
vn -1 -1.409324E-07 4.65466E-06
vn -1.555109E-08 -1 1.800055E-05
vn 1 -1.879097E-08 7.137275E-07
vn 3.800558E-08 1 -1.192093E-07
vn -3.231906E-06 -5.635231E-07 -1
vn 3.916396E-07 -1.293129E-05 -1
vn 3.271901E-06 -5.972939E-07 -1
vn 2.987277E-07 -9.033557E-06 -1
vn 1.748456E-07 -1.192093E-07 -1
vn 1.748456E-07 -1.192093E-07 -1
vn 1.748456E-07 -1.192093E-07 -1
vn 1.748456E-07 -1.192093E-07 -1
vn 1.748456E-07 -1.192093E-07 -1
vn 1.748456E-07 -1.192093E-07 -1
vn 1.748456E-07 -1.192093E-07 -1
vn 1.748456E-07 -1.192093E-07 -1
vn 1.748456E-07 -1.192093E-07 -1
vn 0.9999997 0.0007723804 0.0001889842
vn -0.9999997 -0.0007723804 -0.0001889842
vn 0.0007725062 -0.9999995 -0.000665816
vn -0.0007725062 0.9999995 0.000665816
vn 0.0001884699 0.0006659618 -0.9999998
vn -0.0001884699 -0.0006659618 0.9999998
usemtl mat23
f 4//1 3//1 2//1 1//1
f 8//2 7//2 6//2 5//2
f 2//3 8//3 5//3 1//3
f 10//4 9//4 3//4 4//4
f 5//5 6//5 4//5 1//5
f 3//6 7//6 8//6 2//6
f 9//7 11//7 7//7 3//7
f 11//8 12//8 6//8 7//8
f 12//9 10//9 4//9 6//9
f 14//10 13//10 9//10 10//10
f 13//11 15//11 11//11 9//11
f 15//12 16//12 12//12 11//12
f 16//13 14//13 10//13 12//13
usemtl mat21
f 21//14 20//14 19//14 18//14 17//14 13//14 14//14
f 17//15 25//15 24//15 23//15 22//15 15//15 13//15
f 22//16 31//16 30//16 29//16 28//16 27//16 26//16 16//16 15//16
f 26//17 21//17 14//17 16//17
usemtl mat14
f 26//18 27//18 20//18 21//18
f 33//21 34//21 30//21 31//21
f 32//24 36//24 24//24 25//24
f 28//26 29//26 35//26 36//26 32//26 18//26 19//26
usemtl mat12
f 32//19 25//19 17//19 18//19
f 36//23 35//23 34//23 33//23 23//23 24//23
f 27//25 28//25 19//25 20//25
usemtl mat15
f 33//20 31//20 22//20 23//20
f 34//22 35//22 29//22 30//22
usemtl mat24
f 40//27 39//27 38//27 37//27
f 44//28 43//28 42//28 41//28
f 38//29 44//29 41//29 37//29
f 42//30 43//30 39//30 40//30
f 41//31 42//31 40//31 37//31
f 39//32 43//32 44//32 38//32
