mtllib materials.mtl
v 0.09060235 -0.05014598 0.03459845
v 0.08665832 -0.04997015 0.158638
v 0.09559321 0.1596116 0.1488564
v 0.09953725 0.1594357 0.02481681
v -0.1191627 -0.04142511 0.02984576
v -0.1102277 0.1681566 0.02006409
v -0.1141718 0.1683325 0.1441036
v -0.1231067 -0.04124928 0.1538853
v 0.1036786 0.1358172 0.01084621
v 0.1020682 0.1388596 0.1609915
v 0.1025541 0.172294 0.1532101
v 0.1041645 0.1692516 0.003064871
v -0.1262713 0.1386938 0.007005259
v -0.1257855 0.1721282 -0.0007760674
v -0.1273958 0.1751707 0.1493692
v -0.1278817 0.1417363 0.1571506
v -0.006428719 -0.02393544 0.0004351884
v 0.04773366 -0.02726793 0.002300307
v 0.04691783 -0.05039179 0.005474925
v -0.007244557 -0.0470593 0.003609791
v 0.08917402 -0.02981675 -0.04035915
v 0.08835819 -0.05294049 -0.03718452
v 0.1037098 -0.03214037 -0.09803877
v 0.102894 -0.05526423 -0.09486414
v 0.08744618 -0.03361642 -0.1552834
v 0.08663035 -0.05674016 -0.1521087
v 0.04474096 -0.03384924 -0.1967543
v 0.04392514 -0.05697298 -0.1935797
v -0.01296304 -0.03277647 -0.2113394
v -0.01377888 -0.05590034 -0.2081648
v -0.07020406 -0.03068566 -0.1951307
v -0.0710199 -0.05380952 -0.1919561
v -0.1116444 -0.02813697 -0.1524713
v -0.1124602 -0.05126071 -0.1492967
v -0.1261802 -0.02581322 -0.09479167
v -0.126996 -0.04893708 -0.09161703
v -0.1099166 -0.02433729 -0.03754707
v -0.1107324 -0.04746103 -0.03437246
v -0.06721132 -0.02410448 0.003923878
v -0.06802715 -0.04722822 0.007098496
v -0.01316306 -0.03479123 -0.09597393
v -0.0277306 -0.03547776 -0.06856388
v -0.0402897 -0.03932083 -0.08214302
v -0.01051505 -0.0326798 -0.06036164
v 0.009533353 -0.03395712 -0.06367166
v 0.02058491 -0.03695202 -0.07533093
v 0.02484922 -0.0394913 -0.09459883
v 0.02536976 -0.03789175 -0.1196476
v 0.01240554 -0.03845429 -0.1353364
v -0.0001156777 -0.03874469 -0.1356436
v -0.02016407 -0.03746724 -0.1323336
v -0.03804563 -0.03723407 -0.1198946
v -0.04512982 -0.03539419 -0.1008958
v -0.04527111 -0.04424047 -0.04000571
v -0.06963585 -0.04529762 -0.06949103
v -0.0147706 -0.04972601 -0.02449457
v 0.02290806 -0.05212665 -0.03071536
v 0.04422828 -0.05147898 -0.05352636
v 0.0575422 -0.05493665 -0.08923247
v 0.05576442 -0.06048143 -0.1323364
v 0.03139967 -0.06153846 -0.1618217
v 0.002117515 -0.06146586 -0.1684138
v -0.03556114 -0.05906534 -0.162193
v -0.06721826 -0.05724943 -0.1384276
v -0.08053219 -0.05379176 -0.1027214
v -0.06687152 -0.0292474 -0.01037507
v -0.09969805 -0.0306716 -0.05010054
v -0.01861034 -0.03029251 0.007721528
v 0.03215398 -0.03352678 -0.0006597191
v 0.07181915 -0.03808367 -0.03327306
v 0.08975694 -0.04274213 -0.08137976
v 0.08116093 -0.04625392 -0.1320897
v 0.0483344 -0.04767811 -0.1718152
v 7.32094E-05 -0.04663301 -0.1899118
v -0.05069108 -0.04339874 -0.1815305
v -0.09035625 -0.03884184 -0.1489172
v -0.1082941 -0.03418338 -0.1008104
v -0.07667263 -0.06535268 0.003606409
v -0.1140016 -0.06697214 -0.04156773
v -0.02179204 -0.06654108 0.02418511
v 0.03593501 -0.07021892 0.01465429
v 0.08104058 -0.07540083 -0.02243222
v 0.1014387 -0.08069825 -0.07713714
v 0.09166367 -0.08469176 -0.1348024
v 0.05433471 -0.08631122 -0.1799765
v -0.0005458891 -0.08512282 -0.2005552
v -0.05827291 -0.08144498 -0.1910244
v -0.1033785 -0.07626307 -0.1539379
v -0.1237766 -0.07096565 -0.09923289
v -0.07869498 -0.1051201 0.006703243
v -0.1160239 -0.1067396 -0.03847088
v -0.0238144 -0.1063085 0.02728193
v 0.03391264 -0.1099863 0.01775113
v 0.07901822 -0.1151682 -0.01933539
v 0.09941632 -0.1204656 -0.07404031
v 0.0896413 -0.1244591 -0.1317055
v 0.05231234 -0.1260787 -0.1768796
v -0.002568245 -0.1248903 -0.1974583
v -0.06029527 -0.1212124 -0.1879275
v -0.1054008 -0.1160305 -0.150841
v -0.125799 -0.110733 -0.09613606
v -0.07269467 -0.1437532 -0.001458094
v -0.1055212 -0.1451774 -0.04118355
v -0.02443349 -0.1447983 0.0166385
v 0.02633081 -0.1480325 0.008257255
v 0.065996 -0.1525894 -0.02435608
v 0.08393379 -0.1572479 -0.07246277
v 0.07533777 -0.1607597 -0.1231727
v 0.04251124 -0.1621839 -0.1628982
v -0.005749941 -0.1611388 -0.1809947
v -0.05651423 -0.1579045 -0.1726135
v -0.09617941 -0.1533477 -0.1400002
v -0.1141172 -0.1486893 -0.09189345
v -0.05939542 -0.1765924 -0.0198932
v -0.08376016 -0.1776494 -0.04937851
v -0.02357465 -0.1773679 -0.006461427
v 0.014104 -0.1797686 -0.0126822
v 0.04354458 -0.1831508 -0.0368887
v 0.05685849 -0.1866084 -0.07259481
v 0.0504783 -0.1892149 -0.1102331
v 0.02611354 -0.1902721 -0.1397184
v -0.009707212 -0.1894964 -0.1531502
v -0.04738586 -0.1870958 -0.1469294
v -0.07682642 -0.1837136 -0.1227229
v -0.09014036 -0.1802559 -0.08701679
v -0.04040128 -0.1996765 -0.04637857
v -0.05336548 -0.2002389 -0.06206737
v -0.02134146 -0.2000892 -0.03923167
v -0.001293078 -0.2013665 -0.04254168
v 0.01437192 -0.2031661 -0.0554217
v 0.0214561 -0.2050059 -0.0744205
v 0.01806127 -0.2063929 -0.09444742
v 0.005097061 -0.2069553 -0.1101362
v -0.01396276 -0.2065426 -0.1172831
v -0.03401114 -0.2052653 -0.1139731
v -0.04967614 -0.2034656 -0.1010931
v -0.05676031 -0.2016258 -0.08209427
v -0.01800328 -0.2102214 -0.07771963
v 0.0481609 -0.28579 -0.1129594
v 0.02763727 -0.2857471 0.121428
v 0.03026108 -0.04536319 0.1174973
v -0.09136193 -0.2769674 -0.120412
v -0.06573454 -0.04357469 0.1284174
v -0.1118855 -0.2769245 0.1139754
v 0.04483169 -0.04112267 -0.04824394
v -0.05116393 -0.03933418 -0.03732389
v 0.09959295 0.09450793 0.006603435
v 0.1008128 0.09373438 0.0265512
v 0.1006172 0.1137179 0.02733819
v 0.09939733 0.1144916 0.007390425
v 0.05804054 0.102608 0.003253177
v 0.05784492 0.1225915 0.004040167
v 0.05906478 0.1218179 0.02398793
v 0.0592604 0.1018343 0.02320094
vn 0.9986489 -0.04108966 0.03181189
vn -0.9986489 0.04108981 -0.03181189
vn -0.04154076 -0.9991368 9.575499E-05
vn 0.04154082 0.9991369 -9.533587E-05
vn 0.02065256 -0.04749012 -0.9986582
vn -0.02065256 0.04749012 0.9986582
vn 0.999868 -0.01197824 0.01096676
vn -0.9998681 0.01197746 -0.01096672
vn -0.01284236 -0.999715 0.02011991
vn 0.01284213 0.999715 -0.02011997
vn 0.01342863 -0.2268414 -0.9738392
vn -0.01342872 0.2268411 0.9738392
vn -0.02567982 0.136856 0.9902581
vn 0.7176129 0.0698136 0.6929342
vn 0.9696759 -0.000659159 0.2443936
vn 0.9599795 -0.07106069 -0.2709053
vn 0.691792 -0.122114 -0.7116965
vn 0.2401729 -0.1403426 -0.9605316
vn -0.2745409 -0.1212722 -0.9538974
vn -0.7176127 -0.06981358 -0.6929344
vn -0.969676 0.0006591265 -0.2443934
vn -0.9599796 0.07106081 0.2709049
vn -0.691792 0.1221152 0.7116964
vn 0.05641547 0.1338407 0.9893957
vn 0.02702458 0.9990754 -0.03343817
vn -0.02712477 -0.9990759 0.03334102
vn 0.02702458 0.9990754 -0.03343817
vn 0.02702458 0.9990754 -0.03343817
vn 0.02702458 0.9990754 -0.03343817
vn 0.02702458 0.9990754 -0.03343817
vn 0.02702458 0.9990754 -0.03343817
vn 0.02702458 0.9990754 -0.03343817
vn 0.02702458 0.9990754 -0.03343817
vn 0.02702458 0.9990754 -0.03343817
vn 0.02702458 0.9990754 -0.03343817
vn -0.02712477 -0.9990759 0.03334102
vn -0.02712477 -0.9990759 0.03334102
vn -0.02712477 -0.9990759 0.03334102
vn -0.02712477 -0.9990759 0.03334102
vn -0.02712477 -0.9990759 0.03334102
vn -0.02712477 -0.9990759 0.03334102
vn -0.02712477 -0.9990759 0.03334102
vn -0.02712477 -0.9990759 0.03334102
vn -0.02712477 -0.9990759 0.03334102
vn -0.2061944 0.9747976 -0.08516813
vn -0.1377229 0.9892868 -0.04841494
vn 0.05309013 0.9965981 -0.06303651
vn 0.1375994 0.9829381 -0.1220623
vn 0.1257115 0.9867861 -0.1022243
vn 0.1201041 0.9905815 0.06575271
vn 0.03864225 0.9969588 -0.06767546
vn -0.0204607 0.9941761 -0.1058082
vn 0.04974041 0.9953214 -0.08283279
vn -0.03355533 0.9971932 -0.06693207
vn -0.00372045 0.9952027 -0.09776363
vn -0.05186953 0.974687 0.2174739
vn -0.158761 0.9826428 0.09595871
vn -0.05274758 0.9043408 0.4235393
vn 0.1290131 0.889617 0.4381062
vn 0.2878483 0.9111388 0.2949057
vn 0.4621434 0.8825412 0.08685951
vn 0.441084 0.8876493 -0.1323773
vn 0.4382086 0.8093181 -0.3911234
vn 0.127921 0.8191013 -0.5592041
vn -0.04208159 0.8197175 -0.57122
vn -0.2911299 0.8430544 -0.4522198
vn -0.436829 0.8650669 -0.2466567
vn -0.2618401 0.9521683 -0.1575284
vn 0.2791061 0.9233316 -0.2637395
vn 0.2014556 0.8491522 -0.4882174
vn -0.03126372 0.8542008 -0.5190024
vn -0.1854782 0.9167919 -0.3536814
vn -0.3029459 0.9311087 -0.2031263
vn -0.3529601 0.9356253 -0.004963681
vn -0.4602283 0.8154384 0.35107
vn -0.1962366 0.798269 0.5694363
vn 0.1435573 0.8208961 0.5527394
vn 0.4388877 0.7927358 0.4230219
vn 0.5777308 0.8045607 0.1375106
vn 0.3670828 0.9216082 -0.1260496
vn -0.7610254 0.5656005 0.3177051
vn -0.4755773 0.5779847 0.6631439
vn -0.05591482 0.5688972 0.8205057
vn 0.385514 0.5407731 0.7476252
vn 0.7304286 0.501148 0.4640309
vn 0.8864093 0.4606397 0.04571193
vn 0.8116614 0.4301021 -0.3952442
vn 0.5262133 0.4177178 -0.740683
vn 0.1065509 0.4268053 -0.8980446
vn -0.3348779 0.4549295 -0.8251643
vn -0.6797924 0.4945545 -0.5415701
vn -0.8357733 0.5350629 -0.1232506
vn -0.8854038 0.2499434 0.3919035
vn -0.5608044 0.2640262 0.784722
vn -0.08358171 0.2536923 0.9636672
vn 0.4183925 0.2217107 0.8807905
vn 0.8106149 0.1766508 0.5582991
vn 0.9879898 0.1305864 0.0826041
vn 0.9029895 0.09586032 -0.4188325
vn 0.5783899 0.08177751 -0.8116511
vn 0.1011674 0.09211137 -0.9905961
vn -0.4008068 0.124093 -0.9077196
vn -0.7930291 0.1691529 -0.5852283
vn -0.9704041 0.2152174 -0.1095328
vn -0.9029896 -0.09586043 0.4188325
vn -0.5783901 -0.0817776 0.811651
vn -0.1011675 -0.09211148 0.9905961
vn 0.4008068 -0.1240931 0.9077196
vn 0.7930292 -0.169153 0.5852281
vn 0.970404 -0.2152174 0.1095332
vn 0.8854038 -0.2499435 -0.3919035
vn 0.5608042 -0.2640263 -0.7847221
vn 0.08358168 -0.2536924 -0.9636671
vn -0.4183925 -0.2217108 -0.8807905
vn -0.8106148 -0.1766509 -0.5582992
vn -0.9879898 -0.1305864 -0.0826038
vn -0.8116614 -0.4301022 0.3952441
vn -0.5262134 -0.417718 0.7406829
vn -0.1065509 -0.4268054 0.8980445
vn 0.3348779 -0.4549296 0.8251642
vn 0.6797925 -0.4945546 0.5415699
vn 0.8357732 -0.535063 0.1232509
vn 0.7610253 -0.5656006 -0.3177052
vn 0.4755772 -0.5779848 -0.663144
vn 0.05591478 -0.5688974 -0.8205056
vn -0.385514 -0.5407732 -0.7476252
vn -0.7304285 -0.5011482 -0.464031
vn -0.8864093 -0.4606397 -0.04571155
vn -0.622435 -0.7124671 0.3239835
vn -0.4105677 -0.7032753 0.5803776
vn -0.09908275 -0.7100202 0.6971757
vn 0.2285577 -0.7308947 0.6430819
vn 0.4845627 -0.7603055 0.4325905
vn 0.6003359 -0.7903719 0.1221026
vn 0.544856 -0.8130378 -0.2051869
vn 0.3329886 -0.8222297 -0.461581
vn 0.02150371 -0.8154847 -0.578379
vn -0.3061367 -0.7946102 -0.5242853
vn -0.5621417 -0.7651994 -0.3137939
vn -0.677915 -0.7351329 -0.003305814
vn -0.3581335 -0.9088982 0.2136456
vn -0.2454013 -0.9040073 0.35007
vn -0.07966371 -0.9075962 0.412217
vn 0.09467005 -0.9187033 0.3834342
vn 0.2308874 -0.9343525 0.2714342
vn 0.292489 -0.9503505 0.1062271
vn 0.2629687 -0.9624107 -0.06791995
vn 0.1502365 -0.9673016 -0.2043444
vn -0.01550104 -0.9637127 -0.2664913
vn -0.1898348 -0.9526056 -0.2377086
vn -0.3260521 -0.9369565 -0.1257086
vn -0.3876538 -0.9209585 0.03949866
vn 0.6121433 0.7882287 0.06305596
vn -0.001337707 0.7533764 -0.6575882
vn -0.1560562 0.696007 0.7008714
vn -0.4860052 0.8691257 -0.09175766
vn -0.3028422 0.8395276 -0.4510877
vn 0.3533248 0.8426811 0.4062635
vn -0.4527208 0.8420787 0.2931679
vn 0.519526 0.7713732 -0.3675272
vn -0.2295298 0.9610558 0.1539086
vn 0.294039 0.9219345 -0.2521468
vn 0.4954687 0.8299016 0.2564645
vn -0.4280182 0.821512 -0.3767208
vn -0.3570677 0.9317034 0.06656776
vn 0.4302215 0.9024119 -0.02371158
vn 0.9961437 -0.009446627 0.08722692
vn -0.9763823 0.1983986 -0.08553108
vn -0.06282371 -0.9980105 -0.005318319
vn 0.02174575 0.9993857 0.02748113
vn 0.07063513 0.3185623 -0.9452665
vn -0.05645764 -0.05054572 0.9971247
vn 0.9961339 -0.009544049 0.08732776
vn -0.9777097 0.1937094 -0.08099611
vn -0.1046961 0.252973 -0.9617918
vn 0.1132898 0.01500815 0.9934486
vn 0.9980903 0.01215539 -0.06056455
vn -0.9980903 -0.01215539 0.06056455
vn -0.1892084 -0.9815794 -0.02649824
vn 0.1892067 0.9815797 0.02649976
vn 0.08805784 0.04005895 -0.9953095
vn -0.08805791 -0.04005922 0.9953095
usemtl mat21
f 4//1 3//1 2//1 1//1
f 8//2 7//2 6//2 5//2
f 2//3 8//3 5//3 1//3
f 6//4 7//4 3//4 4//4
f 5//5 6//5 4//5 1//5
f 3//6 7//6 8//6 2//6
f 12//7 11//7 10//7 9//7
f 16//8 15//8 14//8 13//8
f 10//9 16//9 13//9 9//9
f 14//10 15//10 11//10 12//10
f 13//11 14//11 12//11 9//11
f 11//12 15//12 16//12 10//12
f 20//13 19//13 18//13 17//13
f 19//14 22//14 21//14 18//14
f 22//15 24//15 23//15 21//15
f 24//16 26//16 25//16 23//16
f 26//17 28//17 27//17 25//17
f 28//18 30//18 29//18 27//18
f 30//19 32//19 31//19 29//19
f 32//20 34//20 33//20 31//20
f 34//21 36//21 35//21 33//21
f 36//22 38//22 37//22 35//22
f 38//23 40//23 39//23 37//23
f 40//24 20//24 17//24 39//24
f 37//25 39//25 17//25
f 22//26 19//26 20//26
f 35//27 37//27 17//27
f 33//28 35//28 17//28
f 31//29 33//29 17//29
f 29//30 31//30 17//30
f 27//31 29//31 17//31
f 25//32 27//32 17//32
f 23//33 25//33 17//33
f 21//34 23//34 17//34
f 18//35 21//35 17//35
f 24//36 22//36 20//36
f 26//37 24//37 20//37
f 28//38 26//38 20//38
f 30//39 28//39 20//39
f 32//40 30//40 20//40
f 34//41 32//41 20//41
f 36//42 34//42 20//42
f 38//43 36//43 20//43
f 40//44 38//44 20//44
f 43//45 42//45 41//45
f 42//46 44//46 41//46
f 44//47 45//47 41//47
f 45//48 46//48 41//48
f 46//49 47//49 41//49
f 47//50 48//50 41//50
f 48//51 49//51 41//51
f 49//52 50//52 41//52
f 50//53 51//53 41//53
f 51//54 52//54 41//54
f 52//55 53//55 41//55
f 53//56 43//56 41//56
f 55//57 54//57 43//57
f 54//58 56//58 44//58
f 56//59 57//59 45//59 44//59
f 57//60 58//60 46//60
f 58//61 59//61 46//61
f 59//62 60//62 47//62
f 60//63 61//63 49//63 48//63
f 61//64 62//64 50//64
f 62//65 63//65 51//65 50//65
f 63//66 64//66 52//66
f 64//67 65//67 53//67 52//67
f 65//68 55//68 43//68
f 67//69 66//69 54//69 55//69
f 66//70 68//70 56//70
f 68//71 69//71 57//71 56//71
f 69//72 70//72 58//72
f 70//73 71//73 59//73 58//73
f 71//74 72//74 59//74
f 72//75 73//75 61//75 60//75
f 73//76 74//76 62//76
f 74//77 75//77 63//77 62//77
f 75//78 76//78 64//78
f 76//79 77//79 65//79 64//79
f 77//80 67//80 55//80
f 79//81 78//81 66//81 67//81
f 78//82 80//82 68//82 66//82
f 80//83 81//83 69//83 68//83
f 81//84 82//84 70//84 69//84
f 82//85 83//85 71//85 70//85
f 83//86 84//86 72//86 71//86
f 84//87 85//87 73//87 72//87
f 85//88 86//88 74//88 73//88
f 86//89 87//89 75//89 74//89
f 87//90 88//90 76//90 75//90
f 88//91 89//91 77//91 76//91
f 89//92 79//92 67//92 77//92
f 91//93 90//93 78//93 79//93
f 90//94 92//94 80//94 78//94
f 92//95 93//95 81//95 80//95
f 93//96 94//96 82//96 81//96
f 94//97 95//97 83//97 82//97
f 95//98 96//98 84//98 83//98
f 96//99 97//99 85//99 84//99
f 97//100 98//100 86//100 85//100
f 98//101 99//101 87//101 86//101
f 99//102 100//102 88//102 87//102
f 100//103 101//103 89//103 88//103
f 101//104 91//104 79//104 89//104
f 103//105 102//105 90//105 91//105
f 102//106 104//106 92//106 90//106
f 104//107 105//107 93//107 92//107
f 105//108 106//108 94//108 93//108
f 106//109 107//109 95//109 94//109
f 107//110 108//110 96//110 95//110
f 108//111 109//111 97//111 96//111
f 109//112 110//112 98//112 97//112
f 110//113 111//113 99//113 98//113
f 111//114 112//114 100//114 99//114
f 112//115 113//115 101//115 100//115
f 113//116 103//116 91//116 101//116
f 115//117 114//117 102//117 103//117
f 114//118 116//118 104//118 102//118
f 116//119 117//119 105//119 104//119
f 117//120 118//120 106//120 105//120
f 118//121 119//121 107//121 106//121
f 119//122 120//122 108//122 107//122
f 120//123 121//123 109//123 108//123
f 121//124 122//124 110//124 109//124
f 122//125 123//125 111//125 110//125
f 123//126 124//126 112//126 111//126
f 124//127 125//127 113//127 112//127
f 125//128 115//128 103//128 113//128
f 127//129 126//129 114//129 115//129
f 126//130 128//130 116//130 114//130
f 128//131 129//131 117//131 116//131
f 129//132 130//132 118//132 117//132
f 130//133 131//133 119//133 118//133
f 131//134 132//134 120//134 119//134
f 132//135 133//135 121//135 120//135
f 133//136 134//136 122//136 121//136
f 134//137 135//137 123//137 122//137
f 135//138 136//138 124//138 123//138
f 136//139 137//139 125//139 124//139
f 137//140 127//140 115//140 125//140
f 138//141 126//141 127//141
f 138//142 128//142 126//142
f 138//143 129//143 128//143
f 138//144 130//144 129//144
f 138//145 131//145 130//145
f 138//146 132//146 131//146
f 138//147 133//147 132//147
f 138//148 134//148 133//148
f 138//149 135//149 134//149
f 138//150 136//150 135//150
f 138//151 137//151 136//151
f 138//152 127//152 137//152
f 60//153 48//153 47//153
f 50//154 49//154 61//154
f 62//155 61//155 73//155
f 72//156 60//156 59//156
f 52//157 51//157 63//157
f 64//158 63//158 75//158
f 43//159 53//159 65//159
f 55//160 65//160 77//160
f 44//161 42//161 54//161
f 56//162 54//162 66//162
f 46//163 45//163 57//163
f 58//164 57//164 69//164
f 54//165 42//165 43//165
f 59//166 47//166 46//166
f 141//167 140//167 139//167
f 144//168 143//168 142//168
f 140//169 144//169 142//169 139//169
f 146//170 143//170 141//170 145//170
f 142//171 146//171 139//171
f 143//172 144//172 140//172
f 139//173 145//173 141//173
f 143//174 146//174 142//174
f 146//175 145//175 139//175
f 140//176 141//176 143//176
usemtl mat15
f 150//177 149//177 148//177 147//177
f 154//178 153//178 152//178 151//178
f 148//179 154//179 151//179 147//179
f 152//180 153//180 149//180 150//180
f 151//181 152//181 150//181 147//181
f 149//182 153//182 154//182 148//182
